# xmcd
#
# Track frame offsets: 
#        150
#        13088
#        26917
#        40896
#        55178
#        69026
#        82951
#        97068
#        110663
#        124505
#        138820
#        151913
#        165073
#        177829
#        191282
#        204445
#        219244
#        233712
#        246775
#        259591
#        271888
#        284614
#        297146
#
# Disc length: 4128 seconds
#
# Revision: 0
# Processed by: cddbd v1.5.1PL0 Copyright (c) Steve Scherf et al.
# Submitted via: ExactAudioCopy v0.90b4
#
DISCID=32101e17
DTITLE=Trixie Smith - Complete Recorded Works Vol. 2 (1925-39)
DYEAR=2000
DGENRE=Blues
TTITLE0=Everybody Loves My Baby (Take 6)
TTITLE1=How Come You Do Me Like You Do (Take 6)
TTITLE2=You'Ve Got To Beat Me To Keep Me
TTITLE3=Mining Camp Blues (Take 1)
TTITLE4=Mining Camp Blues (Take 2)
TTITLE5=The World's Jazz Crazy And So Am I (Take 1)
TTITLE6=The World's Jazz Crazy And So Am I (Take 2)
TTITLE7=Railroad Blues (Take 1)
TTITLE8=Railroad Blues (Take 2)
TTITLE9=Everbody's Doing That Charleston Now (Take 1)
TTITLE10=He Likes It Slow (Take 2)
TTITLE11=Black Bottom Hop
TTITLE12=Love Me Like You Used To Do
TTITLE13=Messin' Around (Take 1)
TTITLE14=Messin' Around (Take 2)
TTITLE15=Freight Train Blues
TTITLE16=Trixie Blues
TTITLE17=My Daddy Rocks Me
TTITLE18=My Daddy Rocks Me No. 2
TTITLE19=He May Be Your Man (But He Comes To See Me Sometimes)
TTITLE20=Jack I'm Mellow
TTITLE21=My Unusual Man
TTITLE22=No Good Man
EXTD=
EXTT0=
EXTT1=
EXTT2=
EXTT3=
EXTT4=
EXTT5=
EXTT6=
EXTT7=
EXTT8=
EXTT9=
EXTT10=
EXTT11=
EXTT12=
EXTT13=
EXTT14=
EXTT15=
EXTT16=
EXTT17=
EXTT18=
EXTT19=
EXTT20=
EXTT21=
EXTT22=
PLAYORDER=
